<?xml version="1.0" encoding="UTF-8" standalone="no"?>
<!DOCTYPE svg PUBLIC "-//W3C//DTD SVG 1.1//EN" "http://www.w3.org/Graphics/SVG/1.1/DTD/svg11.dtd">
<svg width="100%" height="100%" viewBox="0 0 500 350" version="1.1" xmlns="http://www.w3.org/2000/svg" xmlns:xlink="http://www.w3.org/1999/xlink" xml:space="preserve" xmlns:serif="http://www.serif.com/" style="fill-rule:evenodd;clip-rule:evenodd;stroke-linejoin:round;stroke-miterlimit:2;">
    <g transform="matrix(0.0761666,0,0,0.0761666,59.5828,-15.4161)">
        <g>
            <g transform="matrix(1,0,0,1,197.127,71.4657)">
                <g transform="matrix(1.01965,0,0,1.01965,-9.24688,199.792)">
                    <path d="M2427.64,2535.16L2427.64,2491.27L2398.38,2491.27C2353.03,2491.27 2325.23,2467.87 2325.23,2418.13L2325.23,1986.58C2325.23,1930.99 2341.33,1916.36 2366.19,1916.36C2424.71,1916.36 2439.34,2053.87 2543.2,2053.87C2635.37,2053.87 2676.33,1980.73 2676.33,1906.12C2676.33,1835.9 2614.89,1759.83 2513.95,1759.83C2420.32,1759.83 2350.1,1831.51 2313.53,1894.41L2310.61,1894.41L2310.61,1745.2C2203.81,1802.25 2003.4,1884.17 1886.37,1922.21L1988.77,1992.43L1988.77,2418.13C1988.77,2467.87 1960.98,2491.27 1915.62,2491.27L1886.37,2491.27L1886.37,2535.16L2427.64,2535.16Z" style="fill-rule:nonzero;"/>
                    <path d="M3619.89,1834.44L3619.89,1789.09L3280.5,1789.09L3280.5,1834.44L3299.52,1834.44C3359.49,1834.44 3381.44,1860.77 3381.44,1897.34C3381.44,1938.3 3356.57,1992.43 3333.16,2040.7L3255.63,2195.77L3167.86,2030.46C3141.52,1982.19 3122.51,1929.52 3122.51,1890.03C3122.51,1857.84 3138.6,1834.44 3185.41,1834.44L3211.74,1834.44L3211.74,1789.09L2623.66,1789.09L2623.66,1834.44L2649.99,1834.44C2692.42,1834.44 2745.08,1868.08 2783.12,1938.3L2961.59,2268.91C3004.01,2347.91 3043.51,2450.31 3043.51,2554.18C3043.51,2639.03 3006.94,2706.32 2932.33,2706.32C2835.78,2706.32 2809.45,2617.08 2728.99,2617.08C2652.92,2617.08 2609.03,2665.36 2609.03,2738.5C2609.03,2826.27 2679.25,2886.25 2780.19,2886.25C2907.46,2886.25 3001.09,2820.42 3071.31,2682.91L3447.27,1941.23C3492.62,1851.99 3546.74,1834.44 3590.63,1834.44L3619.89,1834.44Z" style="fill-rule:nonzero;"/>
                </g>
                <g transform="matrix(2.64046,0,0,2.64046,908.254,2784.42)">
                    <text x="0px" y="0px" style="font-family:'Grumpy-Black36', 'Grumpy';font-weight:900;font-size:595.996px;">E</text>
                </g>
            </g>
            <g transform="matrix(0.856641,0,0,0.856641,279.657,99.6862)">
                <path d="M1233.82,3605.24L1217.33,3605.24L1195.98,3557.4L1069.22,3557.4L1047.6,3605.24L1031.11,3605.24L1132.74,3380.91L1233.82,3605.24ZM1075.98,3542.54L1189.22,3542.54L1132.74,3417.4L1075.98,3542.54Z" style="fill-rule:nonzero;"/>
                <path d="M1479.77,3516.59L1584.09,3516.59C1580.12,3544.88 1568.77,3568.08 1550.04,3586.19C1531.3,3604.3 1507.87,3613.35 1479.77,3613.35C1447.69,3613.35 1420.31,3602 1397.6,3579.29C1374.9,3556.59 1363.55,3529.2 1363.55,3497.13C1363.55,3465.06 1374.9,3437.67 1397.6,3414.97C1420.31,3392.27 1447.69,3380.91 1479.77,3380.91C1510.58,3380.91 1537.15,3391.55 1559.5,3412.81L1548.95,3423.35C1529.67,3404.97 1506.61,3395.78 1479.77,3395.78C1451.84,3395.78 1427.96,3405.69 1408.14,3425.51C1388.32,3445.33 1378.41,3469.2 1378.41,3497.13C1378.41,3525.06 1388.32,3548.93 1408.14,3568.75C1427.96,3588.57 1451.84,3598.48 1479.77,3598.48C1506.79,3598.48 1528.68,3588.84 1545.44,3569.57C1554.99,3558.39 1561.75,3545.69 1565.71,3531.46L1479.77,3531.46L1479.77,3516.59Z" style="fill-rule:nonzero;"/>
                <path d="M1853.82,3404.16L1756.25,3404.16L1756.25,3489.56L1838.68,3489.56L1838.68,3504.7L1756.25,3504.7L1756.25,3590.11L1853.82,3590.11L1853.82,3605.24L1741.12,3605.24L1741.12,3389.02L1853.82,3389.02L1853.82,3404.16Z" style="fill-rule:nonzero;"/>
                <path d="M2163.82,3568.75L2163.82,3389.02L2178.69,3389.02L2178.69,3613.35L2037.88,3425.51L2037.88,3605.24L2023.01,3605.24L2023.01,3380.91L2163.82,3568.75Z" style="fill-rule:nonzero;"/>
                <path d="M2527.61,3568.75L2538.15,3579.29C2515.45,3602 2488.06,3613.35 2455.99,3613.35C2423.91,3613.35 2396.53,3602 2373.82,3579.29C2351.12,3556.59 2339.77,3529.2 2339.77,3497.13C2339.77,3465.06 2351.12,3437.67 2373.82,3414.97C2396.53,3392.27 2423.91,3380.91 2455.99,3380.91C2488.06,3380.91 2515.45,3392.27 2538.15,3414.97L2527.61,3425.51C2507.79,3405.69 2483.91,3395.78 2455.99,3395.78C2428.06,3395.78 2404.18,3405.69 2384.36,3425.51C2364.54,3445.33 2354.63,3469.2 2354.63,3497.13C2354.63,3525.06 2364.54,3548.93 2384.36,3568.75C2404.18,3588.57 2428.06,3598.48 2455.99,3598.48C2483.91,3598.48 2507.79,3588.57 2527.61,3568.75Z" style="fill-rule:nonzero;"/>
                <path d="M2773.28,3499.84L2773.28,3605.24L2758.15,3605.24L2758.15,3499.02L2680.58,3389.02L2698.96,3389.02L2765.99,3484.16L2833.01,3389.02L2851.39,3389.02L2773.28,3499.84Z" style="fill-rule:nonzero;"/>
            </g>
        </g>
    </g>
</svg>
